HIERARCHY
ROOT SpineBase
{
  OFFSET 0.000000 0.000000 0.000000
  CHANNELS 6 Xposition Yposition Zposition Zrotation Xrotation Yrotation
  JOINT SpineMid
  {
    OFFSET -0.000000 26.151511 0.000000
    CHANNELS 3 Zrotation Xrotation Yrotation
    JOINT SpineShoulder
    {
      OFFSET -0.042874 19.532881 -0.749035
      CHANNELS 3 Zrotation Xrotation Yrotation
      JOINT Neck
      {
        OFFSET -0.037328 6.477528 -0.540776
        CHANNELS 3 Zrotation Xrotation Yrotation
        JOINT Head
        {
          OFFSET 3.156374 10.677096 0.595867
          CHANNELS 3 Zrotation Xrotation Yrotation
          End Site
          {
            OFFSET 0 0 0
          }
        }
      }
      JOINT ShoulderLeft
      {
        OFFSET -11.338363 -1.926987 -6.749416
        CHANNELS 3 Zrotation Xrotation Yrotation
        JOINT ElbowLeft
        {
          OFFSET -3.816222 -22.428227 -2.822794
          CHANNELS 3 Zrotation Xrotation Yrotation
          JOINT WristLeft
          {
            OFFSET -2.236732 -21.275092 -6.050964
            CHANNELS 3 Zrotation Xrotation Yrotation
            JOINT HandLeft
            {
              OFFSET -0.238639 -5.050938 -1.080866
              CHANNELS 3 Zrotation Xrotation Yrotation
              JOINT HandTipLeft
              {
                OFFSET 3.088087 -5.179695 -0.780888
                CHANNELS 3 Zrotation Xrotation Yrotation
                End Site
                {
                  OFFSET 0 0 0
                }
              }
              JOINT ThumbLeft
              {
                OFFSET -2.358127 0.515781 -2.684703
                CHANNELS 3 Zrotation Xrotation Yrotation
                End Site
                {
                  OFFSET 0 0 0
                }
              }
            }
          }
        }
      }
      JOINT ShoulderRight
      {
        OFFSET 13.108326 -4.181166 5.547629
        CHANNELS 3 Zrotation Xrotation Yrotation
        JOINT ElbowRight
        {
          OFFSET 1.844384 -25.672915 1.007078
          CHANNELS 3 Zrotation Xrotation Yrotation
          JOINT WristRight
          {
            OFFSET 3.214577 -18.623928 -4.324403
            CHANNELS 3 Zrotation Xrotation Yrotation
            JOINT HandRight
            {
              OFFSET 0.964809 -4.052659 -2.239854
              CHANNELS 3 Zrotation Xrotation Yrotation
              JOINT HandTipRight
              {
                OFFSET 0.626219 -4.097067 -2.141390
                CHANNELS 3 Zrotation Xrotation Yrotation
                End Site
                {
                  OFFSET 0 0 0
                }
              }
              JOINT ThumbRight
              {
                OFFSET 0.936235 -0.679870 -4.030783
                CHANNELS 3 Zrotation Xrotation Yrotation
                End Site
                {
                  OFFSET 0 0 0
                }
              }
            }
          }
        }
      }
    }
  }
  JOINT HipLeft
  {
    OFFSET -4.463235 1.249764 -5.275430
    CHANNELS 3 Zrotation Xrotation Yrotation
    JOINT KneeLeft
    {
      OFFSET -7.805106 -33.127236 1.151318
      CHANNELS 3 Zrotation Xrotation Yrotation
      JOINT AnkleLeft
      {
        OFFSET -3.120363 -31.790750 7.572572
        CHANNELS 3 Zrotation Xrotation Yrotation
        JOINT FootLeft
        {
          OFFSET 3.208861 -4.965043 1.690737
          CHANNELS 3 Zrotation Xrotation Yrotation
          End Site
          {
            OFFSET 0 0 0
          }
        }
      }
    }
  }
  JOINT HipRight
  {
    OFFSET 4.070073 0.208163 -0.826003
    CHANNELS 3 Zrotation Xrotation Yrotation
    JOINT KneeRight
    {
      OFFSET -1.102458 -28.832244 3.135443
      CHANNELS 3 Zrotation Xrotation Yrotation
      JOINT AnkleRight
      {
        OFFSET -5.993209 -37.195207 9.148046
        CHANNELS 3 Zrotation Xrotation Yrotation
        JOINT FootRight
        {
          OFFSET -4.344935 -5.741328 -1.501047
          CHANNELS 3 Zrotation Xrotation Yrotation
          End Site
          {
            OFFSET 0 0 0
          }
        }
      }
    }
  }
}
MOTION
Frames: 16
Frame Time: 0.033333
22.422385 71.560616 367.127964 0.000000 0.000000 -27.538382 -0.000000 0.000000 27.538382 -0.000000 0.000000 0.000000 -0.000000 0.000000 0.000000 0.000000 0.000000 0.000000 -0.000000 0.000000 0.000000 -0.000000 0.000000 0.000000 -0.000000 0.000000 0.000000 -0.000000 0.000000 0.000000 0.000000 0.000000 0.000000 0.000000 0.000000 0.000000 -0.000000 0.000000 0.000000 -0.000000 0.000000 0.000000 -0.000000 0.000000 0.000000 -0.000000 0.000000 0.000000 0.000000 0.000000 0.000000 0.000000 0.000000 0.000000 -0.000000 0.000000 27.538382 -0.000000 0.000000 0.000000 -0.000000 0.000000 0.000000 0.000000 0.000000 0.000000 -0.000000 0.000000 27.538382 -0.000000 0.000000 0.000000 -0.000000 0.000000 0.000000 0.000000 0.000000 0.000000
22.306636 71.583478 367.015668 -0.097586 0.070640 -27.463012 0.119167 -0.017675 27.463091 -0.000000 0.000000 0.000000 -0.000000 0.000000 0.000000 0.000000 0.000000 0.000000 -0.000000 0.000000 0.000000 -0.000000 0.000000 0.000000 2.948872 -1.532517 -0.521442 -4.782775 4.617551 2.845518 0.000000 0.000000 0.000000 0.000000 0.000000 0.000000 -0.000000 0.000000 0.000000 0.325125 -1.162477 -0.273360 -2.530178 -3.749706 0.293267 2.896886 8.879975 0.028275 0.000000 0.000000 0.000000 0.000000 0.000000 0.000000 0.119167 -0.017675 27.463091 -0.000000 0.000000 0.000000 -0.941093 -0.766499 -0.824644 0.000000 0.000000 0.000000 0.119167 -0.017675 27.463091 -0.000000 0.000000 0.000000 9.570456 11.166010 -12.343153 0.000000 0.000000 0.000000
22.203242 71.605693 366.909205 -0.170952 0.141453 -27.393465 0.216865 -0.046936 27.393765 -0.000000 0.000000 0.000000 1.062062 -0.436240 0.073951 0.000000 0.000000 0.000000 -0.777476 -0.841663 0.235302 0.781009 0.838385 -0.246727 5.863427 -2.883138 -0.979519 -9.624368 8.341198 5.587276 0.000000 0.000000 0.000000 0.000000 0.000000 0.000000 -0.000000 0.000000 0.000000 0.604842 -2.038474 -0.483122 -4.551643 -5.999625 0.685530 5.121465 14.813510 -0.277983 0.000000 0.000000 0.000000 0.000000 0.000000 0.000000 0.216865 -0.046936 27.393765 -0.000000 0.000000 0.000000 -1.343950 0.341824 -0.234764 0.000000 0.000000 0.000000 0.384435 -1.328008 27.394294 0.440709 1.214506 -0.003190 22.918999 20.614735 -28.550051 0.000000 0.000000 0.000000
22.112204 71.627261 366.808578 -0.220003 0.212402 -27.329886 0.292962 -0.087685 27.330518 -0.000000 0.000000 0.000000 1.468637 -0.610094 0.106648 0.000000 0.000000 0.000000 -0.973454 -1.080374 0.297099 0.979215 1.075155 -0.315465 8.555526 -3.933944 -1.368753 -14.299973 11.139805 8.143409 0.000000 0.000000 0.000000 0.000000 0.000000 0.000000 -0.000000 0.000000 0.000000 0.841715 -2.625674 -0.631994 -6.039528 -6.660979 1.247122 6.654151 17.981630 -0.670366 0.000000 0.000000 0.000000 0.000000 0.000000 0.000000 0.292962 -0.087685 27.330518 -0.000000 0.000000 0.000000 -1.380877 3.219663 1.678973 0.000000 0.000000 0.000000 0.559828 -1.806092 27.337954 0.552208 1.649019 -0.010972 36.211518 25.480902 -44.312942 0.000000 0.000000 0.000000
22.033521 71.648182 366.713784 -0.244665 0.283452 -27.272394 0.347352 -0.139829 27.273423 -0.000000 0.000000 0.000000 1.791019 -0.754142 0.135446 0.000000 0.000000 0.000000 -1.046916 -1.202837 0.325374 1.053960 1.196670 -0.347371 10.850675 -4.596225 -1.696972 -18.585516 13.023475 10.404147 0.000000 0.000000 0.000000 0.000000 0.000000 0.000000 -0.000000 0.000000 0.000000 1.037524 -2.922858 -0.722194 -7.010160 -5.735791 2.008737 7.422228 18.563509 -0.989251 0.000000 0.000000 0.000000 0.000000 0.000000 0.000000 0.347352 -0.139829 27.273423 -0.000000 0.000000 0.000000 -1.263591 8.151305 5.093384 0.000000 0.000000 0.000000 0.725536 -2.177681 27.291918 0.598474 1.984380 -0.021210 45.998530 27.032976 -56.071725 0.000000 0.000000 0.000000
21.967193 71.668456 366.624826 -0.244891 0.354568 -27.221078 0.379959 -0.203275 27.222510 -0.000000 0.000000 0.000000 2.028538 -0.868235 0.159728 0.000000 0.000000 0.000000 -0.999208 -1.210487 0.321132 1.006199 1.204682 -0.342266 12.623290 -4.829647 -1.977436 -22.310109 14.049756 12.265947 0.000000 0.000000 0.000000 0.000000 0.000000 0.000000 0.763135 -0.529370 -0.004566 0.430106 -2.400011 -0.754824 -7.503941 -3.270028 2.959597 7.350310 16.706965 -1.173601 0.000000 0.000000 0.000000 0.000000 0.000000 0.000000 0.379959 -0.203275 27.222510 -0.000000 0.000000 0.000000 -1.398932 15.683637 10.461880 0.000000 0.000000 0.000000 0.882906 -2.451087 27.256118 0.582475 2.228529 -0.033286 52.084930 27.418848 -63.754008 0.000000 0.000000 0.000000
21.918503 71.689307 366.533894 -0.208185 0.443985 -27.140047 0.387798 -0.300128 27.141869 -0.000000 0.000000 0.000000 2.272711 -0.985583 0.185240 0.000000 0.000000 0.000000 -0.718491 -1.051923 0.262849 0.723430 1.048533 -0.276065 14.473551 -3.834104 -2.477791 -27.137541 14.749357 14.968033 0.000000 0.000000 0.000000 0.000000 0.000000 0.000000 0.699318 -0.734391 -0.020832 0.453297 -2.663778 -0.809238 -7.882864 1.533414 4.555099 6.247042 11.824554 -1.271140 0.000000 0.000000 0.000000 0.000000 0.000000 0.000000 0.387798 -0.300128 27.141869 0.722319 -0.315433 0.205000 -5.011053 36.393784 27.071560 0.000000 0.000000 0.000000 1.199673 -2.399012 27.220829 0.238006 2.237722 -0.064482 54.730535 29.771902 -69.939468 0.000000 0.000000 0.000000
21.875694 71.706902 366.455169 -0.144987 0.514558 -27.103014 0.363501 -0.391994 27.104909 0.116277 0.826609 0.013640 2.224276 -1.822857 0.203942 0.000000 0.000000 0.000000 -0.482964 -1.736952 0.177577 0.369306 0.909197 -0.204024 15.043455 -3.067308 -2.719811 -29.093877 12.538412 14.434448 0.000000 0.000000 0.000000 0.000000 0.000000 0.000000 -0.116486 -0.826579 -0.015319 0.950446 -4.079165 -0.897344 -7.235407 8.465622 6.051777 3.419642 3.912896 -1.397823 0.000000 0.000000 0.000000 0.000000 0.000000 0.000000 0.363501 -0.391994 27.104909 0.837913 -0.295220 0.230754 -13.185382 46.635364 39.855392 0.000000 0.000000 0.000000 1.476385 -2.218791 27.228793 -0.154075 2.133359 -0.095658 54.441756 32.390216 -72.522178 0.000000 0.000000 0.000000
21.856963 71.716456 366.392417 -0.073364 0.591490 -27.050539 0.334343 -0.493417 27.052357 0.271426 0.981919 0.026011 2.040368 -2.026960 0.211180 0.000000 0.000000 0.000000 -0.271912 -0.981784 -0.030667 0.817739 -0.055884 -0.226509 13.814747 -2.254227 -2.553350 -29.128763 10.989450 13.634559 0.000000 0.000000 0.000000 0.000000 0.000000 0.000000 0.359053 -2.079798 -0.067876 0.052562 -1.940256 -0.621175 -5.589779 10.340786 5.534816 0.898394 0.738612 -1.001282 0.000000 0.000000 0.000000 0.000000 0.000000 0.000000 1.235873 -0.680027 27.222523 0.137617 0.303223 0.066504 -16.157018 47.284678 41.792768 0.000000 0.000000 0.000000 1.281891 -2.661875 27.153038 0.146289 2.361754 -0.077604 57.745133 31.272480 -75.769232 0.000000 0.000000 0.000000
21.847071 71.739549 366.334848 0.005196 0.663358 -27.068483 0.126858 0.315488 27.081565 0.158989 0.245150 0.030020 1.803727 -2.165296 0.200634 0.000000 0.000000 0.000000 -0.421551 -1.131423 -0.045839 1.376915 0.177362 -0.412751 12.551105 -2.996284 -2.083156 -29.649928 9.887051 12.830930 0.000000 0.000000 0.000000 0.000000 0.000000 0.000000 0.188421 -3.448571 -0.163791 0.865718 2.248189 -0.259605 -6.329604 17.198441 7.310226 0.772449 -9.984165 -3.779333 0.000000 0.000000 0.000000 0.000000 0.000000 0.000000 1.311080 -0.849787 27.272915 0.020325 0.391539 0.027988 -24.206904 52.614259 52.853442 0.000000 0.000000 0.000000 1.299386 -2.609759 27.181077 0.029512 2.251578 -0.083655 57.397089 28.677208 -72.277694 0.000000 0.000000 0.000000
21.842970 71.771934 366.281964 0.112815 0.702634 -27.101791 0.110096 0.366081 27.118733 0.173535 0.281110 0.036809 1.527551 -2.279417 0.191246 0.000000 0.000000 0.000000 -0.552316 -1.258989 -0.059381 1.985623 0.504313 -0.626910 10.937963 -3.465642 -1.586142 -31.834174 7.370015 11.626006 0.000000 0.000000 0.000000 0.000000 0.000000 0.000000 -0.016999 -4.715966 -0.258436 2.789089 10.458396 0.267055 -7.571151 16.111629 6.960947 -1.542683 -15.725190 -4.926181 0.000000 0.000000 0.000000 0.000000 0.000000 0.000000 1.328261 -1.022138 27.339408 -0.826261 0.815611 -0.214693 -20.708800 53.047954 52.557254 0.000000 0.000000 0.000000 1.184509 -2.826447 27.208501 0.124570 2.352669 -0.079163 53.934520 27.050398 -65.674104 0.000000 0.000000 0.000000
21.820047 71.806556 366.226582 0.172385 0.744186 -27.193641 0.106150 0.405658 27.213160 0.174289 0.296207 0.040469 1.325109 -2.332615 0.176764 0.000000 0.000000 0.000000 0.232719 -1.123712 -0.196387 1.690910 0.563005 -0.670951 8.726704 -4.043478 -0.996829 -32.038927 6.537866 10.945573 0.000000 0.000000 0.000000 0.000000 0.000000 0.000000 -0.439979 -6.627225 -0.425399 5.441326 21.713773 0.566825 -8.186146 26.821738 8.544816 -2.977122 -27.911137 -8.623983 0.000000 0.000000 0.000000 0.000000 0.000000 0.000000 1.433179 -1.193654 27.475657 -0.896969 0.976616 -0.253243 -17.680863 50.979558 48.145022 0.000000 0.000000 0.000000 0.786125 -3.440155 27.241532 0.703065 2.674278 -0.042346 50.882406 25.396833 -59.825845 0.000000 0.000000 0.000000
21.770225 71.849087 366.159340 0.164124 0.806821 -27.397304 0.118092 0.411355 27.417385 0.149750 0.282754 0.038808 1.416174 -2.331991 0.162747 0.000000 0.000000 0.000000 -0.609467 -1.399851 -0.066329 3.037405 0.884114 -0.981038 5.819907 -4.916461 -0.314155 -30.247949 7.259718 10.694413 0.000000 0.000000 0.000000 0.000000 0.000000 0.000000 -0.729098 -8.158708 -0.565707 10.491336 35.730151 -0.648473 -13.757108 35.155867 11.099987 1.406779 -33.471718 -9.518765 0.000000 0.000000 0.000000 0.000000 0.000000 0.000000 1.550550 -1.317510 27.708664 -0.180024 0.724992 -0.076281 -10.579316 43.833766 35.801210 0.000000 0.000000 0.000000 0.792329 -3.970756 27.434636 1.625902 3.664756 -0.009319 52.534353 23.023355 -59.996811 0.000000 0.000000 0.000000
21.709133 71.890405 366.084675 0.141238 0.895684 -27.743950 0.153894 0.407899 27.765021 0.131885 0.271036 0.037887 1.375274 -2.391240 0.167192 0.000000 0.000000 0.000000 -0.600729 -1.455490 -0.066103 3.330775 0.795618 -1.055483 3.853997 -5.838287 0.141682 -27.520136 7.337388 9.414398 0.000000 0.000000 0.000000 0.000000 0.000000 0.000000 0.275553 -7.822933 -0.417398 15.931010 49.340539 -3.641973 -18.965862 39.304842 11.567396 8.444706 -28.754920 -6.174768 0.000000 0.000000 0.000000 0.000000 0.000000 0.000000 1.615353 -1.358190 28.053082 -0.159441 0.592484 -0.054433 -5.214151 26.958696 18.561874 0.000000 0.000000 0.000000 1.405880 -3.862961 27.867080 0.923513 3.856992 -0.105039 45.819838 22.669305 -51.512765 0.000000 0.000000 0.000000
21.630635 71.927819 366.013499 0.078113 0.976502 -28.224500 0.152318 0.379722 28.243581 0.072168 0.255606 0.029392 1.505359 -2.509311 0.206376 0.000000 0.000000 0.000000 -0.738189 -2.687663 0.174069 3.567834 1.595695 -1.302006 2.844751 -6.351587 0.317291 -26.039355 10.278754 10.961664 0.000000 0.000000 0.000000 0.000000 0.000000 0.000000 2.340579 -5.918059 -0.079520 26.868100 65.942725 -12.666075 -22.321962 32.803075 6.211805 16.996326 -18.733135 -1.182097 0.000000 0.000000 0.000000 0.000000 0.000000 0.000000 1.798220 -1.470296 28.565611 0.016156 0.706164 -0.037233 -1.463746 18.197208 11.797067 0.000000 0.000000 0.000000 2.439283 -3.668486 28.491440 -0.268691 4.270243 -0.270822 41.158880 22.441308 -46.076636 0.000000 0.000000 0.000000
21.540863 71.955687 365.968295 -0.032581 1.013199 -28.716495 0.122314 0.367532 28.731421 -0.023014 0.217215 0.014560 2.022492 -2.480006 0.214490 0.000000 0.000000 0.000000 -0.990252 -3.172570 0.319932 3.765187 1.444253 -1.307319 2.988646 -8.219207 0.395950 -25.530654 14.232773 12.854445 0.000000 0.000000 0.000000 0.000000 0.000000 0.000000 6.231264 -0.465724 0.406043 50.579527 78.249027 -36.815541 -24.579137 24.033893 -0.954223 14.466910 -8.430265 -1.482297 0.000000 0.000000 0.000000 0.000000 0.000000 0.000000 1.910853 -1.456720 29.060985 0.245667 0.707973 0.006857 1.305082 13.599899 8.933077 0.000000 0.000000 0.000000 3.717549 -3.073716 29.152799 -1.911698 4.438275 -0.457541 39.205463 23.337536 -44.760061 0.000000 0.000000 0.000000
